{
    "asset" : {
        "generator" : "Khronos glTF Blender I/O v1.7.33",
        "version" : "2.0"
    },
    "scene" : 0,
    "scenes" : [
        {
            "name" : "Scene",
            "nodes" : [
                0
            ]
        }
    ],
    "nodes" : [
        {
            "mesh" : 0,
            "name" : "Cube.002"
        }
    ],
    "materials" : [
        {
            "doubleSided" : true,
            "name" : "wood",
            "pbrMetallicRoughness" : {
                "baseColorTexture" : {
                    "index" : 0
                },
                "metallicFactor" : 0,
                "roughnessFactor" : 0.6454545259475708
            }
        },
        {
            "doubleSided" : true,
            "name" : "metal",
            "pbrMetallicRoughness" : {
                "baseColorFactor" : [
                    0.04200763255357742,
                    0.037770457565784454,
                    0.028896354138851166,
                    1
                ],
                "roughnessFactor" : 0.0989583432674408
            }
        },
        {
            "doubleSided" : true,
            "name" : "Material",
            "pbrMetallicRoughness" : {
                "baseColorFactor" : [
                    0.012125052511692047,
                    0.03967837989330292,
                    0.0009053500834852457,
                    1
                ],
                "metallicFactor" : 0,
                "roughnessFactor" : 0.5
            }
        },
        {
            "doubleSided" : true,
            "name" : "Material.001",
            "pbrMetallicRoughness" : {
                "baseColorFactor" : [
                    0.2956884801387787,
                    0.21653039753437042,
                    0.18308106064796448,
                    1
                ],
                "metallicFactor" : 0,
                "roughnessFactor" : 0.5
            }
        },
        {
            "doubleSided" : true,
            "name" : "Material.002",
            "pbrMetallicRoughness" : {
                "baseColorFactor" : [
                    0.0020178435370326042,
                    0.05496736988425255,
                    0.0003155566519126296,
                    1
                ],
                "metallicFactor" : 0,
                "roughnessFactor" : 0.5
            }
        }
    ],
    "meshes" : [
        {
            "name" : "Cube.041",
            "primitives" : [
                {
                    "attributes" : {
                        "POSITION" : 0,
                        "NORMAL" : 1,
                        "TEXCOORD_0" : 2
                    },
                    "indices" : 3,
                    "material" : 0
                },
                {
                    "attributes" : {
                        "POSITION" : 4,
                        "NORMAL" : 5,
                        "TEXCOORD_0" : 6
                    },
                    "indices" : 7,
                    "material" : 1
                },
                {
                    "attributes" : {
                        "POSITION" : 8,
                        "NORMAL" : 9,
                        "TEXCOORD_0" : 10
                    },
                    "indices" : 11,
                    "material" : 2
                },
                {
                    "attributes" : {
                        "POSITION" : 12,
                        "NORMAL" : 13,
                        "TEXCOORD_0" : 14
                    },
                    "indices" : 15,
                    "material" : 3
                },
                {
                    "attributes" : {
                        "POSITION" : 16,
                        "NORMAL" : 17,
                        "TEXCOORD_0" : 18
                    },
                    "indices" : 19,
                    "material" : 4
                }
            ]
        }
    ],
    "textures" : [
        {
            "sampler" : 0,
            "source" : 0
        }
    ],
    "images" : [
        {
            "bufferView" : 4,
            "mimeType" : "image/png",
            "name" : "Untitled"
        }
    ],
    "accessors" : [
        {
            "bufferView" : 0,
            "componentType" : 5126,
            "count" : 1946,
            "max" : [
                4.314323902130127,
                3.5914931297302246,
                3.7730002403259277
            ],
            "min" : [
                -4.101974010467529,
                -0.5122315883636475,
                -3.351719856262207
            ],
            "type" : "VEC3"
        },
        {
            "bufferView" : 1,
            "componentType" : 5126,
            "count" : 1946,
            "type" : "VEC3"
        },
        {
            "bufferView" : 2,
            "componentType" : 5126,
            "count" : 1946,
            "type" : "VEC2"
        },
        {
            "bufferView" : 3,
            "componentType" : 5123,
            "count" : 3036,
            "type" : "SCALAR"
        },
        {
            "bufferView" : 5,
            "componentType" : 5126,
            "count" : 400,
            "max" : [
                3.743384838104248,
                1.0668833255767822,
                3.788938283920288
            ],
            "min" : [
                -4.119135856628418,
                -0.004037141799926758,
                -0.4280662536621094
            ],
            "type" : "VEC3"
        },
        {
            "bufferView" : 6,
            "componentType" : 5126,
            "count" : 400,
            "type" : "VEC3"
        },
        {
            "bufferView" : 7,
            "componentType" : 5126,
            "count" : 400,
            "type" : "VEC2"
        },
        {
            "bufferView" : 8,
            "componentType" : 5123,
            "count" : 600,
            "type" : "SCALAR"
        },
        {
            "bufferView" : 9,
            "componentType" : 5126,
            "count" : 4096,
            "max" : [
                1.7758712768554688,
                2.6637063026428223,
                0.44340240955352783
            ],
            "min" : [
                -3.6398420333862305,
                0.7685768008232117,
                -3.1407675743103027
            ],
            "type" : "VEC3"
        },
        {
            "bufferView" : 10,
            "componentType" : 5126,
            "count" : 4096,
            "type" : "VEC3"
        },
        {
            "bufferView" : 11,
            "componentType" : 5126,
            "count" : 4096,
            "type" : "VEC2"
        },
        {
            "bufferView" : 12,
            "componentType" : 5123,
            "count" : 6144,
            "type" : "SCALAR"
        },
        {
            "bufferView" : 13,
            "componentType" : 5126,
            "count" : 96,
            "max" : [
                0.24147629737854004,
                1.40462064743042,
                1.237363338470459
            ],
            "min" : [
                -3.640404224395752,
                -0.018976926803588867,
                -3.351719856262207
            ],
            "type" : "VEC3"
        },
        {
            "bufferView" : 14,
            "componentType" : 5126,
            "count" : 96,
            "type" : "VEC3"
        },
        {
            "bufferView" : 15,
            "componentType" : 5126,
            "count" : 96,
            "type" : "VEC2"
        },
        {
            "bufferView" : 16,
            "componentType" : 5123,
            "count" : 192,
            "type" : "SCALAR"
        },
        {
            "bufferView" : 17,
            "componentType" : 5126,
            "count" : 1920,
            "max" : [
                4.701584815979004,
                1.2215547561645508,
                3.204833984375
            ],
            "min" : [
                -3.5113844871520996,
                -0.5390158891677856,
                -3.81027889251709
            ],
            "type" : "VEC3"
        },
        {
            "bufferView" : 18,
            "componentType" : 5126,
            "count" : 1920,
            "type" : "VEC3"
        },
        {
            "bufferView" : 19,
            "componentType" : 5126,
            "count" : 1920,
            "type" : "VEC2"
        },
        {
            "bufferView" : 20,
            "componentType" : 5123,
            "count" : 1920,
            "type" : "SCALAR"
        }
    ],
    "bufferViews" : [
        {
            "buffer" : 0,
            "byteLength" : 23352,
            "byteOffset" : 0
        },
        {
            "buffer" : 0,
            "byteLength" : 23352,
            "byteOffset" : 23352
        },
        {
            "buffer" : 0,
            "byteLength" : 15568,
            "byteOffset" : 46704
        },
        {
            "buffer" : 0,
            "byteLength" : 6072,
            "byteOffset" : 62272
        },
        {
            "buffer" : 0,
            "byteLength" : 1875482,
            "byteOffset" : 68344
        },
        {
            "buffer" : 0,
            "byteLength" : 4800,
            "byteOffset" : 1943828
        },
        {
            "buffer" : 0,
            "byteLength" : 4800,
            "byteOffset" : 1948628
        },
        {
            "buffer" : 0,
            "byteLength" : 3200,
            "byteOffset" : 1953428
        },
        {
            "buffer" : 0,
            "byteLength" : 1200,
            "byteOffset" : 1956628
        },
        {
            "buffer" : 0,
            "byteLength" : 49152,
            "byteOffset" : 1957828
        },
        {
            "buffer" : 0,
            "byteLength" : 49152,
            "byteOffset" : 2006980
        },
        {
            "buffer" : 0,
            "byteLength" : 32768,
            "byteOffset" : 2056132
        },
        {
            "buffer" : 0,
            "byteLength" : 12288,
            "byteOffset" : 2088900
        },
        {
            "buffer" : 0,
            "byteLength" : 1152,
            "byteOffset" : 2101188
        },
        {
            "buffer" : 0,
            "byteLength" : 1152,
            "byteOffset" : 2102340
        },
        {
            "buffer" : 0,
            "byteLength" : 768,
            "byteOffset" : 2103492
        },
        {
            "buffer" : 0,
            "byteLength" : 384,
            "byteOffset" : 2104260
        },
        {
            "buffer" : 0,
            "byteLength" : 23040,
            "byteOffset" : 2104644
        },
        {
            "buffer" : 0,
            "byteLength" : 23040,
            "byteOffset" : 2127684
        },
        {
            "buffer" : 0,
            "byteLength" : 15360,
            "byteOffset" : 2150724
        },
        {
            "buffer" : 0,
            "byteLength" : 3840,
            "byteOffset" : 2166084
        }
    ],
    "samplers" : [
        {
            "magFilter" : 9729,
            "minFilter" : 9987
        }
    ],
    "buffers" : [
        {
            "byteLength" : 2169924,
            "uri" : "data:application/octet-stream;base64,"
        }
    ]
}
