{
    "asset" : {
        "generator" : "Khronos glTF Blender I/O v1.7.33",
        "version" : "2.0"
    },
    "scene" : 0,
    "scenes" : [
        {
            "name" : "Scene",
            "nodes" : [
                0,
                1,
                2
            ]
        }
    ],
    "nodes" : [
        {
            "mesh" : 0,
            "name" : "lod1"
        },
        {
            "mesh" : 1,
            "name" : "lod3"
        },
        {
            "mesh" : 2,
            "name" : "lod2"
        }
    ],
    "materials" : [
        {
            "doubleSided" : true,
            "name" : "wood.001",
            "pbrMetallicRoughness" : {
                "baseColorTexture" : {
                    "index" : 0
                },
                "metallicFactor" : 0,
                "roughnessFactor" : 0.6454545259475708
            }
        },
        {
            "doubleSided" : true,
            "emissiveFactor" : [
                0.8140352964401245,
                0.696365475654602,
                0.4446027874946594
            ],
            "name" : "Window",
            "pbrMetallicRoughness" : {
                "baseColorFactor" : [
                    0.2863711714744568,
                    0.27555719017982483,
                    0.3343230187892914,
                    1
                ],
                "metallicFactor" : 0,
                "roughnessFactor" : 0.5
            }
        },
        {
            "doubleSided" : true,
            "name" : "metal",
            "pbrMetallicRoughness" : {
                "baseColorFactor" : [
                    0.04200763255357742,
                    0.037770457565784454,
                    0.028896354138851166,
                    1
                ],
                "roughnessFactor" : 0.0989583432674408
            }
        },
        {
            "doubleSided" : true,
            "name" : "Roof",
            "pbrMetallicRoughness" : {
                "baseColorTexture" : {
                    "index" : 1
                },
                "metallicFactor" : 0.4663212299346924,
                "roughnessFactor" : 0.5803108811378479
            }
        },
        {
            "doubleSided" : true,
            "name" : "wood",
            "pbrMetallicRoughness" : {
                "baseColorFactor" : [
                    0.10653382539749146,
                    0.05968094989657402,
                    0.03576783463358879,
                    1
                ],
                "metallicFactor" : 0,
                "roughnessFactor" : 0.6454545259475708
            }
        },
        {
            "doubleSided" : true,
            "name" : "Roof.002",
            "pbrMetallicRoughness" : {
                "baseColorFactor" : [
                    0.07330906391143799,
                    0.08510571718215942,
                    0.04633829742670059,
                    1
                ],
                "metallicFactor" : 0.4663212299346924,
                "roughnessFactor" : 0.5803108811378479
            }
        }
    ],
    "meshes" : [
        {
            "name" : "Cube.002",
            "primitives" : [
                {
                    "attributes" : {
                        "POSITION" : 0,
                        "NORMAL" : 1,
                        "TEXCOORD_0" : 2
                    },
                    "indices" : 3,
                    "material" : 0
                },
                {
                    "attributes" : {
                        "POSITION" : 4,
                        "NORMAL" : 5,
                        "TEXCOORD_0" : 6
                    },
                    "indices" : 7,
                    "material" : 1
                },
                {
                    "attributes" : {
                        "POSITION" : 8,
                        "NORMAL" : 9,
                        "TEXCOORD_0" : 10
                    },
                    "indices" : 11,
                    "material" : 2
                },
                {
                    "attributes" : {
                        "POSITION" : 12,
                        "NORMAL" : 13,
                        "TEXCOORD_0" : 14
                    },
                    "indices" : 15,
                    "material" : 3
                }
            ]
        },
        {
            "name" : "Cube",
            "primitives" : [
                {
                    "attributes" : {
                        "POSITION" : 16,
                        "NORMAL" : 17,
                        "TEXCOORD_0" : 18
                    },
                    "indices" : 19,
                    "material" : 4
                },
                {
                    "attributes" : {
                        "POSITION" : 20,
                        "NORMAL" : 21,
                        "TEXCOORD_0" : 22
                    },
                    "indices" : 23,
                    "material" : 5
                },
                {
                    "attributes" : {
                        "POSITION" : 24,
                        "NORMAL" : 25,
                        "TEXCOORD_0" : 26
                    },
                    "indices" : 27,
                    "material" : 1
                }
            ]
        },
        {
            "name" : "Cube.004",
            "primitives" : [
                {
                    "attributes" : {
                        "POSITION" : 28,
                        "NORMAL" : 29,
                        "TEXCOORD_0" : 30
                    },
                    "indices" : 31,
                    "material" : 4
                },
                {
                    "attributes" : {
                        "POSITION" : 32,
                        "NORMAL" : 33,
                        "TEXCOORD_0" : 34
                    },
                    "indices" : 35,
                    "material" : 1
                },
                {
                    "attributes" : {
                        "POSITION" : 36,
                        "NORMAL" : 37,
                        "TEXCOORD_0" : 38
                    },
                    "indices" : 39,
                    "material" : 5
                }
            ]
        }
    ],
    "textures" : [
        {
            "sampler" : 0,
            "source" : 0
        },
        {
            "sampler" : 0,
            "source" : 1
        }
    ],
    "images" : [
        {
            "mimeType" : "image/png",
            "name" : "wood.001",
            "uri" : "wood_001.png"
        },
        {
            "mimeType" : "image/png",
            "name" : "roof.001",
            "uri" : "roof_001.png"
        }
    ],
    "accessors" : [
        {
            "bufferView" : 0,
            "componentType" : 5126,
            "count" : 4576,
            "max" : [
                7.906891345977783,
                4.949265480041504,
                7.361207485198975
            ],
            "min" : [
                -0.3383394479751587,
                -0.6600813865661621,
                0.21612858772277832
            ],
            "type" : "VEC3"
        },
        {
            "bufferView" : 1,
            "componentType" : 5126,
            "count" : 4576,
            "type" : "VEC3"
        },
        {
            "bufferView" : 2,
            "componentType" : 5126,
            "count" : 4576,
            "type" : "VEC2"
        },
        {
            "bufferView" : 3,
            "componentType" : 5123,
            "count" : 6912,
            "type" : "SCALAR"
        },
        {
            "bufferView" : 4,
            "componentType" : 5126,
            "count" : 88,
            "max" : [
                4.850507736206055,
                1.8462525606155396,
                7.113369941711426
            ],
            "min" : [
                0.3450199365615845,
                0.8086040616035461,
                0.446225643157959
            ],
            "type" : "VEC3"
        },
        {
            "bufferView" : 5,
            "componentType" : 5126,
            "count" : 88,
            "type" : "VEC3"
        },
        {
            "bufferView" : 6,
            "componentType" : 5126,
            "count" : 88,
            "type" : "VEC2"
        },
        {
            "bufferView" : 7,
            "componentType" : 5123,
            "count" : 132,
            "type" : "SCALAR"
        },
        {
            "bufferView" : 8,
            "componentType" : 5126,
            "count" : 800,
            "max" : [
                7.3002214431762695,
                1.0668830871582031,
                4.330866813659668
            ],
            "min" : [
                -0.35331761837005615,
                -0.00917518138885498,
                0.900038480758667
            ],
            "type" : "VEC3"
        },
        {
            "bufferView" : 9,
            "componentType" : 5126,
            "count" : 800,
            "type" : "VEC3"
        },
        {
            "bufferView" : 10,
            "componentType" : 5126,
            "count" : 800,
            "type" : "VEC2"
        },
        {
            "bufferView" : 11,
            "componentType" : 5123,
            "count" : 1200,
            "type" : "SCALAR"
        },
        {
            "bufferView" : 12,
            "componentType" : 5126,
            "count" : 824,
            "max" : [
                8.152153968811035,
                4.949265480041504,
                7.313024044036865
            ],
            "min" : [
                0.14536666870117188,
                1.53525710105896,
                0.26431190967559814
            ],
            "type" : "VEC3"
        },
        {
            "bufferView" : 13,
            "componentType" : 5126,
            "count" : 824,
            "type" : "VEC3"
        },
        {
            "bufferView" : 14,
            "componentType" : 5126,
            "count" : 824,
            "type" : "VEC2"
        },
        {
            "bufferView" : 15,
            "componentType" : 5123,
            "count" : 1230,
            "type" : "SCALAR"
        },
        {
            "bufferView" : 16,
            "componentType" : 5126,
            "count" : 35,
            "max" : [
                7.760814666748047,
                4.252542018890381,
                7.105974197387695
            ],
            "min" : [
                0.2860935926437378,
                -0.983050525188446,
                0.40099918842315674
            ],
            "type" : "VEC3"
        },
        {
            "bufferView" : 17,
            "componentType" : 5126,
            "count" : 35,
            "type" : "VEC3"
        },
        {
            "bufferView" : 18,
            "componentType" : 5126,
            "count" : 35,
            "type" : "VEC2"
        },
        {
            "bufferView" : 19,
            "componentType" : 5123,
            "count" : 51,
            "type" : "SCALAR"
        },
        {
            "bufferView" : 20,
            "componentType" : 5126,
            "count" : 33,
            "max" : [
                7.760814666748047,
                4.252542018890381,
                7.105973720550537
            ],
            "min" : [
                0.2860935926437378,
                1.7347830533981323,
                0.40099942684173584
            ],
            "type" : "VEC3"
        },
        {
            "bufferView" : 21,
            "componentType" : 5126,
            "count" : 33,
            "type" : "VEC3"
        },
        {
            "bufferView" : 22,
            "componentType" : 5126,
            "count" : 33,
            "type" : "VEC2"
        },
        {
            "bufferView" : 23,
            "componentType" : 5123,
            "count" : 33,
            "type" : "SCALAR"
        },
        {
            "bufferView" : 24,
            "componentType" : 5126,
            "count" : 20,
            "max" : [
                4.8365278244018555,
                1.8200416564941406,
                7.146842002868652
            ],
            "min" : [
                0.21286511421203613,
                0.8445888757705688,
                0.362337589263916
            ],
            "type" : "VEC3"
        },
        {
            "bufferView" : 25,
            "componentType" : 5126,
            "count" : 20,
            "type" : "VEC3"
        },
        {
            "bufferView" : 26,
            "componentType" : 5126,
            "count" : 20,
            "type" : "VEC2"
        },
        {
            "bufferView" : 27,
            "componentType" : 5123,
            "count" : 30,
            "type" : "SCALAR"
        },
        {
            "bufferView" : 28,
            "componentType" : 5126,
            "count" : 1223,
            "max" : [
                8.024165153503418,
                4.949265480041504,
                7.361207485198975
            ],
            "min" : [
                -0.35331761837005615,
                -0.6600813865661621,
                0.21612894535064697
            ],
            "type" : "VEC3"
        },
        {
            "bufferView" : 29,
            "componentType" : 5126,
            "count" : 1223,
            "type" : "VEC3"
        },
        {
            "bufferView" : 30,
            "componentType" : 5126,
            "count" : 1223,
            "type" : "VEC2"
        },
        {
            "bufferView" : 31,
            "componentType" : 5123,
            "count" : 1701,
            "type" : "SCALAR"
        },
        {
            "bufferView" : 32,
            "componentType" : 5126,
            "count" : 96,
            "max" : [
                6.684196949005127,
                1.8034007549285889,
                7.180892467498779
            ],
            "min" : [
                0.2791624963283539,
                0.04483604431152344,
                0.46575823426246643
            ],
            "type" : "VEC3"
        },
        {
            "bufferView" : 33,
            "componentType" : 5126,
            "count" : 96,
            "type" : "VEC3"
        },
        {
            "bufferView" : 34,
            "componentType" : 5126,
            "count" : 96,
            "type" : "VEC2"
        },
        {
            "bufferView" : 35,
            "componentType" : 5123,
            "count" : 138,
            "type" : "SCALAR"
        },
        {
            "bufferView" : 36,
            "componentType" : 5126,
            "count" : 446,
            "max" : [
                8.11490535736084,
                4.949265480041504,
                7.313024044036865
            ],
            "min" : [
                0.14536678791046143,
                1.53525710105896,
                0.26431190967559814
            ],
            "type" : "VEC3"
        },
        {
            "bufferView" : 37,
            "componentType" : 5126,
            "count" : 446,
            "type" : "VEC3"
        },
        {
            "bufferView" : 38,
            "componentType" : 5126,
            "count" : 446,
            "type" : "VEC2"
        },
        {
            "bufferView" : 39,
            "componentType" : 5123,
            "count" : 606,
            "type" : "SCALAR"
        }
    ],
    "bufferViews" : [
        {
            "buffer" : 0,
            "byteLength" : 54912,
            "byteOffset" : 0
        },
        {
            "buffer" : 0,
            "byteLength" : 54912,
            "byteOffset" : 54912
        },
        {
            "buffer" : 0,
            "byteLength" : 36608,
            "byteOffset" : 109824
        },
        {
            "buffer" : 0,
            "byteLength" : 13824,
            "byteOffset" : 146432
        },
        {
            "buffer" : 0,
            "byteLength" : 1056,
            "byteOffset" : 160256
        },
        {
            "buffer" : 0,
            "byteLength" : 1056,
            "byteOffset" : 161312
        },
        {
            "buffer" : 0,
            "byteLength" : 704,
            "byteOffset" : 162368
        },
        {
            "buffer" : 0,
            "byteLength" : 264,
            "byteOffset" : 163072
        },
        {
            "buffer" : 0,
            "byteLength" : 9600,
            "byteOffset" : 163336
        },
        {
            "buffer" : 0,
            "byteLength" : 9600,
            "byteOffset" : 172936
        },
        {
            "buffer" : 0,
            "byteLength" : 6400,
            "byteOffset" : 182536
        },
        {
            "buffer" : 0,
            "byteLength" : 2400,
            "byteOffset" : 188936
        },
        {
            "buffer" : 0,
            "byteLength" : 9888,
            "byteOffset" : 191336
        },
        {
            "buffer" : 0,
            "byteLength" : 9888,
            "byteOffset" : 201224
        },
        {
            "buffer" : 0,
            "byteLength" : 6592,
            "byteOffset" : 211112
        },
        {
            "buffer" : 0,
            "byteLength" : 2460,
            "byteOffset" : 217704
        },
        {
            "buffer" : 0,
            "byteLength" : 420,
            "byteOffset" : 220164
        },
        {
            "buffer" : 0,
            "byteLength" : 420,
            "byteOffset" : 220584
        },
        {
            "buffer" : 0,
            "byteLength" : 280,
            "byteOffset" : 221004
        },
        {
            "buffer" : 0,
            "byteLength" : 102,
            "byteOffset" : 221284
        },
        {
            "buffer" : 0,
            "byteLength" : 396,
            "byteOffset" : 221388
        },
        {
            "buffer" : 0,
            "byteLength" : 396,
            "byteOffset" : 221784
        },
        {
            "buffer" : 0,
            "byteLength" : 264,
            "byteOffset" : 222180
        },
        {
            "buffer" : 0,
            "byteLength" : 66,
            "byteOffset" : 222444
        },
        {
            "buffer" : 0,
            "byteLength" : 240,
            "byteOffset" : 222512
        },
        {
            "buffer" : 0,
            "byteLength" : 240,
            "byteOffset" : 222752
        },
        {
            "buffer" : 0,
            "byteLength" : 160,
            "byteOffset" : 222992
        },
        {
            "buffer" : 0,
            "byteLength" : 60,
            "byteOffset" : 223152
        },
        {
            "buffer" : 0,
            "byteLength" : 14676,
            "byteOffset" : 223212
        },
        {
            "buffer" : 0,
            "byteLength" : 14676,
            "byteOffset" : 237888
        },
        {
            "buffer" : 0,
            "byteLength" : 9784,
            "byteOffset" : 252564
        },
        {
            "buffer" : 0,
            "byteLength" : 3402,
            "byteOffset" : 262348
        },
        {
            "buffer" : 0,
            "byteLength" : 1152,
            "byteOffset" : 265752
        },
        {
            "buffer" : 0,
            "byteLength" : 1152,
            "byteOffset" : 266904
        },
        {
            "buffer" : 0,
            "byteLength" : 768,
            "byteOffset" : 268056
        },
        {
            "buffer" : 0,
            "byteLength" : 276,
            "byteOffset" : 268824
        },
        {
            "buffer" : 0,
            "byteLength" : 5352,
            "byteOffset" : 269100
        },
        {
            "buffer" : 0,
            "byteLength" : 5352,
            "byteOffset" : 274452
        },
        {
            "buffer" : 0,
            "byteLength" : 3568,
            "byteOffset" : 279804
        },
        {
            "buffer" : 0,
            "byteLength" : 1212,
            "byteOffset" : 283372
        }
    ],
    "samplers" : [
        {
            "magFilter" : 9729,
            "minFilter" : 9987
        }
    ],
    "buffers" : [
        {
            "byteLength" : 284584,
            "uri" : "house3.bin"
        }
    ]
}
