{
    "asset" : {
        "generator" : "Khronos glTF Blender I/O v1.7.33",
        "version" : "2.0"
    },
    "scene" : 0,
    "scenes" : [
        {
            "name" : "Scene",
            "nodes" : [
                0
            ]
        }
    ],
    "nodes" : [
        {
            "mesh" : 0,
            "name" : "Cube.003"
        }
    ],
    "materials" : [
        {
            "doubleSided" : true,
            "name" : "wood",
            "pbrMetallicRoughness" : {
                "baseColorTexture" : {
                    "index" : 0
                },
                "metallicFactor" : 0,
                "roughnessFactor" : 0.6454545259475708
            }
        },
        {
            "doubleSided" : true,
            "name" : "metal",
            "pbrMetallicRoughness" : {
                "baseColorFactor" : [
                    0.04200763255357742,
                    0.037770457565784454,
                    0.028896354138851166,
                    1
                ],
                "roughnessFactor" : 0.0989583432674408
            }
        },
        {
            "doubleSided" : true,
            "name" : "Material",
            "pbrMetallicRoughness" : {
                "baseColorFactor" : [
                    0.012125052511692047,
                    0.03967837989330292,
                    0.0009053500834852457,
                    1
                ],
                "metallicFactor" : 0,
                "roughnessFactor" : 0.5
            }
        },
        {
            "doubleSided" : true,
            "name" : "Material.001",
            "pbrMetallicRoughness" : {
                "baseColorFactor" : [
                    0.2956884801387787,
                    0.21653039753437042,
                    0.18308106064796448,
                    1
                ],
                "metallicFactor" : 0,
                "roughnessFactor" : 0.5
            }
        },
        {
            "doubleSided" : true,
            "name" : "Material.002",
            "pbrMetallicRoughness" : {
                "baseColorFactor" : [
                    0.02129882387816906,
                    0.07016685605049133,
                    0.006016419269144535,
                    1
                ],
                "metallicFactor" : 0
            }
        }
    ],
    "meshes" : [
        {
            "name" : "Cube.048",
            "primitives" : [
                {
                    "attributes" : {
                        "POSITION" : 0,
                        "NORMAL" : 1,
                        "TEXCOORD_0" : 2
                    },
                    "indices" : 3,
                    "material" : 0
                },
                {
                    "attributes" : {
                        "POSITION" : 4,
                        "NORMAL" : 5,
                        "TEXCOORD_0" : 6
                    },
                    "indices" : 7,
                    "material" : 1
                },
                {
                    "attributes" : {
                        "POSITION" : 8,
                        "NORMAL" : 9,
                        "TEXCOORD_0" : 10
                    },
                    "indices" : 11,
                    "material" : 2
                },
                {
                    "attributes" : {
                        "POSITION" : 12,
                        "NORMAL" : 13,
                        "TEXCOORD_0" : 14
                    },
                    "indices" : 15,
                    "material" : 3
                },
                {
                    "attributes" : {
                        "POSITION" : 16,
                        "NORMAL" : 17,
                        "TEXCOORD_0" : 18
                    },
                    "indices" : 19,
                    "material" : 4
                }
            ]
        }
    ],
    "textures" : [
        {
            "sampler" : 0,
            "source" : 0
        }
    ],
    "images" : [
        {
            "bufferView" : 4,
            "mimeType" : "image/png",
            "name" : "Untitled"
        }
    ],
    "accessors" : [
        {
            "bufferView" : 0,
            "componentType" : 5126,
            "count" : 2202,
            "max" : [
                2.84136700630188,
                2.848087787628174,
                2.7118656635284424
            ],
            "min" : [
                -4.306630611419678,
                -0.3929315209388733,
                -2.9204537868499756
            ],
            "type" : "VEC3"
        },
        {
            "bufferView" : 1,
            "componentType" : 5126,
            "count" : 2202,
            "type" : "VEC3"
        },
        {
            "bufferView" : 2,
            "componentType" : 5126,
            "count" : 2202,
            "type" : "VEC2"
        },
        {
            "bufferView" : 3,
            "componentType" : 5123,
            "count" : 3450,
            "type" : "SCALAR"
        },
        {
            "bufferView" : 5,
            "componentType" : 5126,
            "count" : 420,
            "max" : [
                2.4002459049224854,
                0.8184032440185547,
                2.5571250915527344
            ],
            "min" : [
                -3.6310718059539795,
                -0.00309688039124012,
                -0.677727222442627
            ],
            "type" : "VEC3"
        },
        {
            "bufferView" : 6,
            "componentType" : 5126,
            "count" : 420,
            "type" : "VEC3"
        },
        {
            "bufferView" : 7,
            "componentType" : 5126,
            "count" : 420,
            "type" : "VEC2"
        },
        {
            "bufferView" : 8,
            "componentType" : 5123,
            "count" : 636,
            "type" : "SCALAR"
        },
        {
            "bufferView" : 9,
            "componentType" : 5126,
            "count" : 1169,
            "max" : [
                0.8909716606140137,
                2.0433218479156494,
                -0.009226024150848389
            ],
            "min" : [
                -3.263406753540039,
                0.5895731449127197,
                -2.7586328983306885
            ],
            "type" : "VEC3"
        },
        {
            "bufferView" : 10,
            "componentType" : 5126,
            "count" : 1169,
            "type" : "VEC3"
        },
        {
            "bufferView" : 11,
            "componentType" : 5126,
            "count" : 1169,
            "type" : "VEC2"
        },
        {
            "bufferView" : 12,
            "componentType" : 5123,
            "count" : 6144,
            "type" : "SCALAR"
        },
        {
            "bufferView" : 13,
            "componentType" : 5126,
            "count" : 144,
            "max" : [
                0.5649946928024292,
                1.077480673789978,
                2.536430597305298
            ],
            "min" : [
                -4.306630611419678,
                -0.014557148329913616,
                -2.9204537868499756
            ],
            "type" : "VEC3"
        },
        {
            "bufferView" : 14,
            "componentType" : 5126,
            "count" : 144,
            "type" : "VEC3"
        },
        {
            "bufferView" : 15,
            "componentType" : 5126,
            "count" : 144,
            "type" : "VEC2"
        },
        {
            "bufferView" : 16,
            "componentType" : 5123,
            "count" : 276,
            "type" : "SCALAR"
        },
        {
            "bufferView" : 17,
            "componentType" : 5126,
            "count" : 1920,
            "max" : [
                3.034323215484619,
                0.8594010472297668,
                2.109060525894165
            ],
            "min" : [
                -3.164867401123047,
                -0.46334007382392883,
                -3.2619524002075195
            ],
            "type" : "VEC3"
        },
        {
            "bufferView" : 18,
            "componentType" : 5126,
            "count" : 1920,
            "type" : "VEC3"
        },
        {
            "bufferView" : 19,
            "componentType" : 5126,
            "count" : 1920,
            "type" : "VEC2"
        },
        {
            "bufferView" : 20,
            "componentType" : 5123,
            "count" : 1920,
            "type" : "SCALAR"
        }
    ],
    "bufferViews" : [
        {
            "buffer" : 0,
            "byteLength" : 26424,
            "byteOffset" : 0
        },
        {
            "buffer" : 0,
            "byteLength" : 26424,
            "byteOffset" : 26424
        },
        {
            "buffer" : 0,
            "byteLength" : 17616,
            "byteOffset" : 52848
        },
        {
            "buffer" : 0,
            "byteLength" : 6900,
            "byteOffset" : 70464
        },
        {
            "buffer" : 0,
            "byteLength" : 1970376,
            "byteOffset" : 77364
        },
        {
            "buffer" : 0,
            "byteLength" : 5040,
            "byteOffset" : 2047740
        },
        {
            "buffer" : 0,
            "byteLength" : 5040,
            "byteOffset" : 2052780
        },
        {
            "buffer" : 0,
            "byteLength" : 3360,
            "byteOffset" : 2057820
        },
        {
            "buffer" : 0,
            "byteLength" : 1272,
            "byteOffset" : 2061180
        },
        {
            "buffer" : 0,
            "byteLength" : 14028,
            "byteOffset" : 2062452
        },
        {
            "buffer" : 0,
            "byteLength" : 14028,
            "byteOffset" : 2076480
        },
        {
            "buffer" : 0,
            "byteLength" : 9352,
            "byteOffset" : 2090508
        },
        {
            "buffer" : 0,
            "byteLength" : 12288,
            "byteOffset" : 2099860
        },
        {
            "buffer" : 0,
            "byteLength" : 1728,
            "byteOffset" : 2112148
        },
        {
            "buffer" : 0,
            "byteLength" : 1728,
            "byteOffset" : 2113876
        },
        {
            "buffer" : 0,
            "byteLength" : 1152,
            "byteOffset" : 2115604
        },
        {
            "buffer" : 0,
            "byteLength" : 552,
            "byteOffset" : 2116756
        },
        {
            "buffer" : 0,
            "byteLength" : 23040,
            "byteOffset" : 2117308
        },
        {
            "buffer" : 0,
            "byteLength" : 23040,
            "byteOffset" : 2140348
        },
        {
            "buffer" : 0,
            "byteLength" : 15360,
            "byteOffset" : 2163388
        },
        {
            "buffer" : 0,
            "byteLength" : 3840,
            "byteOffset" : 2178748
        }
    ],
    "samplers" : [
        {
            "magFilter" : 9729,
            "minFilter" : 9987
        }
    ],
    "buffers" : [
        {
            "byteLength" : 2182588,
            "uri" : "data:application/octet-stream;base64,"
        }
    ]
}
