{
    "asset" : {
        "generator" : "Khronos glTF Blender I/O v3.2.43",
        "version" : "2.0"
    },
    "scene" : 0,
    "scenes" : [
        {
            "name" : "Scene",
            "nodes" : [
                0,
                1,
                2
            ]
        }
    ],
    "nodes" : [
        {
            "mesh" : 0,
            "name" : "building",
            "translation" : [
                0,
                0,
                -1
            ]
        },
        {
            "mesh" : 1,
            "name" : "fire01",
            "scale" : [
                0.8930805325508118,
                0.8930805325508118,
                0.8930805325508118
            ],
            "translation" : [
                0.025348667055368423,
                0.36333322525024414,
                2.962031602859497
            ]
        },
        {
            "mesh" : 2,
            "name" : "fire02",
            "scale" : [
                1.0065600872039795,
                0.6543601155281067,
                1.0065600872039795
            ],
            "translation" : [
                0.025348667055368423,
                0.36333322525024414,
                2.962031602859497
            ]
        }
    ],
    "animations" : [
        {
            "channels" : [
                {
                    "sampler" : 0,
                    "target" : {
                        "node" : 0,
                        "path" : "translation"
                    }
                },
                {
                    "sampler" : 1,
                    "target" : {
                        "node" : 0,
                        "path" : "rotation"
                    }
                },
                {
                    "sampler" : 2,
                    "target" : {
                        "node" : 0,
                        "path" : "scale"
                    }
                }
            ],
            "name" : "building",
            "samplers" : [
                {
                    "input" : 23,
                    "interpolation" : "LINEAR",
                    "output" : 24
                },
                {
                    "input" : 23,
                    "interpolation" : "LINEAR",
                    "output" : 25
                },
                {
                    "input" : 23,
                    "interpolation" : "LINEAR",
                    "output" : 26
                }
            ]
        },
        {
            "channels" : [
                {
                    "sampler" : 0,
                    "target" : {
                        "node" : 1,
                        "path" : "translation"
                    }
                },
                {
                    "sampler" : 1,
                    "target" : {
                        "node" : 1,
                        "path" : "rotation"
                    }
                },
                {
                    "sampler" : 2,
                    "target" : {
                        "node" : 1,
                        "path" : "scale"
                    }
                }
            ],
            "name" : "fire01",
            "samplers" : [
                {
                    "input" : 23,
                    "interpolation" : "LINEAR",
                    "output" : 27
                },
                {
                    "input" : 23,
                    "interpolation" : "LINEAR",
                    "output" : 28
                },
                {
                    "input" : 23,
                    "interpolation" : "LINEAR",
                    "output" : 29
                }
            ]
        },
        {
            "channels" : [
                {
                    "sampler" : 0,
                    "target" : {
                        "node" : 2,
                        "path" : "translation"
                    }
                },
                {
                    "sampler" : 1,
                    "target" : {
                        "node" : 2,
                        "path" : "rotation"
                    }
                },
                {
                    "sampler" : 2,
                    "target" : {
                        "node" : 2,
                        "path" : "scale"
                    }
                }
            ],
            "name" : "fire02",
            "samplers" : [
                {
                    "input" : 23,
                    "interpolation" : "LINEAR",
                    "output" : 30
                },
                {
                    "input" : 23,
                    "interpolation" : "LINEAR",
                    "output" : 31
                },
                {
                    "input" : 23,
                    "interpolation" : "LINEAR",
                    "output" : 32
                }
            ]
        }
    ],
    "materials" : [
        {
            "doubleSided" : true,
            "name" : "wood",
            "pbrMetallicRoughness" : {
                "baseColorTexture" : {
                    "index" : 0
                },
                "metallicFactor" : 0,
                "roughnessFactor" : 0.6454545259475708
            }
        },
        {
            "doubleSided" : true,
            "name" : "metal",
            "pbrMetallicRoughness" : {
                "baseColorFactor" : [
                    0.04200763255357742,
                    0.037770457565784454,
                    0.028896354138851166,
                    1
                ],
                "roughnessFactor" : 0.0989583432674408
            }
        },
        {
            "doubleSided" : true,
            "name" : "Material",
            "pbrMetallicRoughness" : {
                "baseColorFactor" : [
                    0.010020267218351364,
                    0.010020267218351364,
                    0.010020267218351364,
                    1
                ],
                "metallicFactor" : 0,
                "roughnessFactor" : 0.5
            }
        },
        {
            "doubleSided" : true,
            "name" : "Material.002",
            "pbrMetallicRoughness" : {
                "baseColorTexture" : {
                    "index" : 1
                },
                "metallicFactor" : 0,
                "roughnessFactor" : 0.5
            }
        },
        {
            "doubleSided" : true,
            "emissiveFactor" : [
                1,
                1,
                1
            ],
            "name" : "fire",
            "pbrMetallicRoughness" : {
                "baseColorFactor" : [
                    1,
                    0.6184913516044617,
                    0.3622833788394928,
                    1
                ],
                "metallicFactor" : 0,
                "roughnessFactor" : 0.5
            }
        }
    ],
    "meshes" : [
        {
            "name" : "Cube.078",
            "primitives" : [
                {
                    "attributes" : {
                        "POSITION" : 0,
                        "NORMAL" : 1,
                        "TEXCOORD_0" : 2
                    },
                    "indices" : 3,
                    "material" : 0
                },
                {
                    "attributes" : {
                        "POSITION" : 4,
                        "NORMAL" : 5,
                        "TEXCOORD_0" : 6
                    },
                    "indices" : 7,
                    "material" : 1
                },
                {
                    "attributes" : {
                        "POSITION" : 8,
                        "NORMAL" : 9,
                        "TEXCOORD_0" : 10
                    },
                    "indices" : 11,
                    "material" : 2
                },
                {
                    "attributes" : {
                        "POSITION" : 12,
                        "NORMAL" : 13,
                        "TEXCOORD_0" : 14
                    },
                    "indices" : 15,
                    "material" : 3
                }
            ]
        },
        {
            "name" : "Cube.010",
            "primitives" : [
                {
                    "attributes" : {
                        "POSITION" : 16,
                        "NORMAL" : 17,
                        "TEXCOORD_0" : 18
                    },
                    "indices" : 19,
                    "material" : 4
                }
            ]
        },
        {
            "name" : "Cube.014",
            "primitives" : [
                {
                    "attributes" : {
                        "POSITION" : 20,
                        "NORMAL" : 21,
                        "TEXCOORD_0" : 22
                    },
                    "indices" : 19,
                    "material" : 4
                }
            ]
        }
    ],
    "textures" : [
        {
            "sampler" : 0,
            "source" : 0
        },
        {
            "sampler" : 0,
            "source" : 1
        }
    ],
    "images" : [
        {
            "bufferView" : 4,
            "mimeType" : "image/png",
            "name" : "wood"
        },
        {
            "bufferView" : 17,
            "mimeType" : "image/png",
            "name" : "roof"
        }
    ],
    "accessors" : [
        {
            "bufferView" : 0,
            "componentType" : 5126,
            "count" : 5307,
            "max" : [
                4.770231246948242,
                7.016626834869385,
                4.949837684631348
            ],
            "min" : [
                -4.772207260131836,
                -0.18576344847679138,
                -4.294427871704102
            ],
            "type" : "VEC3"
        },
        {
            "bufferView" : 1,
            "componentType" : 5126,
            "count" : 5307,
            "type" : "VEC3"
        },
        {
            "bufferView" : 2,
            "componentType" : 5126,
            "count" : 5307,
            "type" : "VEC2"
        },
        {
            "bufferView" : 3,
            "componentType" : 5123,
            "count" : 8910,
            "type" : "SCALAR"
        },
        {
            "bufferView" : 5,
            "componentType" : 5126,
            "count" : 1052,
            "max" : [
                2.9156455993652344,
                3.4503350257873535,
                3.630058765411377
            ],
            "min" : [
                -3.8124353885650635,
                -0.0039488389156758785,
                -3.2979111671447754
            ],
            "type" : "VEC3"
        },
        {
            "bufferView" : 6,
            "componentType" : 5126,
            "count" : 1052,
            "type" : "VEC3"
        },
        {
            "bufferView" : 7,
            "componentType" : 5126,
            "count" : 1052,
            "type" : "VEC2"
        },
        {
            "bufferView" : 8,
            "componentType" : 5123,
            "count" : 1608,
            "type" : "SCALAR"
        },
        {
            "bufferView" : 9,
            "componentType" : 5126,
            "count" : 280,
            "max" : [
                1.1708828210830688,
                0.3076033890247345,
                5.247480869293213
            ],
            "min" : [
                -1.1016654968261719,
                -0.24719145894050598,
                2.9152660369873047
            ],
            "type" : "VEC3"
        },
        {
            "bufferView" : 10,
            "componentType" : 5126,
            "count" : 280,
            "type" : "VEC3"
        },
        {
            "bufferView" : 11,
            "componentType" : 5126,
            "count" : 280,
            "type" : "VEC2"
        },
        {
            "bufferView" : 12,
            "componentType" : 5123,
            "count" : 420,
            "type" : "SCALAR"
        },
        {
            "bufferView" : 13,
            "componentType" : 5126,
            "count" : 1640,
            "max" : [
                4.713367938995361,
                6.4069976806640625,
                4.683403015136719
            ],
            "min" : [
                -4.713367938995361,
                2.284642219543457,
                -4.0258870124816895
            ],
            "type" : "VEC3"
        },
        {
            "bufferView" : 14,
            "componentType" : 5126,
            "count" : 1640,
            "type" : "VEC3"
        },
        {
            "bufferView" : 15,
            "componentType" : 5126,
            "count" : 1640,
            "type" : "VEC2"
        },
        {
            "bufferView" : 16,
            "componentType" : 5123,
            "count" : 4434,
            "type" : "SCALAR"
        },
        {
            "bufferView" : 18,
            "componentType" : 5126,
            "count" : 63,
            "max" : [
                0.4644048511981964,
                1.5235090255737305,
                0.488173246383667
            ],
            "min" : [
                -0.44690078496932983,
                -0.6653427481651306,
                -0.4984123706817627
            ],
            "type" : "VEC3"
        },
        {
            "bufferView" : 19,
            "componentType" : 5126,
            "count" : 63,
            "type" : "VEC3"
        },
        {
            "bufferView" : 20,
            "componentType" : 5126,
            "count" : 63,
            "type" : "VEC2"
        },
        {
            "bufferView" : 21,
            "componentType" : 5123,
            "count" : 240,
            "type" : "SCALAR"
        },
        {
            "bufferView" : 22,
            "componentType" : 5126,
            "count" : 63,
            "max" : [
                0.4644048511981964,
                1.5235090255737305,
                0.488173246383667
            ],
            "min" : [
                -0.44690078496932983,
                -0.6653427481651306,
                -0.4984123706817627
            ],
            "type" : "VEC3"
        },
        {
            "bufferView" : 23,
            "componentType" : 5126,
            "count" : 63,
            "type" : "VEC3"
        },
        {
            "bufferView" : 24,
            "componentType" : 5126,
            "count" : 63,
            "type" : "VEC2"
        },
        {
            "bufferView" : 25,
            "componentType" : 5126,
            "count" : 576,
            "max" : [
                23.958333333333332
            ],
            "min" : [
                0
            ],
            "type" : "SCALAR"
        },
        {
            "bufferView" : 26,
            "componentType" : 5126,
            "count" : 576,
            "type" : "VEC3"
        },
        {
            "bufferView" : 27,
            "componentType" : 5126,
            "count" : 576,
            "type" : "VEC4"
        },
        {
            "bufferView" : 28,
            "componentType" : 5126,
            "count" : 576,
            "type" : "VEC3"
        },
        {
            "bufferView" : 29,
            "componentType" : 5126,
            "count" : 576,
            "type" : "VEC3"
        },
        {
            "bufferView" : 30,
            "componentType" : 5126,
            "count" : 576,
            "type" : "VEC4"
        },
        {
            "bufferView" : 31,
            "componentType" : 5126,
            "count" : 576,
            "type" : "VEC3"
        },
        {
            "bufferView" : 32,
            "componentType" : 5126,
            "count" : 576,
            "type" : "VEC3"
        },
        {
            "bufferView" : 33,
            "componentType" : 5126,
            "count" : 576,
            "type" : "VEC4"
        },
        {
            "bufferView" : 34,
            "componentType" : 5126,
            "count" : 576,
            "type" : "VEC3"
        }
    ],
    "bufferViews" : [
        {
            "buffer" : 0,
            "byteLength" : 63684,
            "byteOffset" : 0
        },
        {
            "buffer" : 0,
            "byteLength" : 63684,
            "byteOffset" : 63684
        },
        {
            "buffer" : 0,
            "byteLength" : 42456,
            "byteOffset" : 127368
        },
        {
            "buffer" : 0,
            "byteLength" : 17820,
            "byteOffset" : 169824
        },
        {
            "buffer" : 0,
            "byteLength" : 974815,
            "byteOffset" : 187644
        },
        {
            "buffer" : 0,
            "byteLength" : 12624,
            "byteOffset" : 1162460
        },
        {
            "buffer" : 0,
            "byteLength" : 12624,
            "byteOffset" : 1175084
        },
        {
            "buffer" : 0,
            "byteLength" : 8416,
            "byteOffset" : 1187708
        },
        {
            "buffer" : 0,
            "byteLength" : 3216,
            "byteOffset" : 1196124
        },
        {
            "buffer" : 0,
            "byteLength" : 3360,
            "byteOffset" : 1199340
        },
        {
            "buffer" : 0,
            "byteLength" : 3360,
            "byteOffset" : 1202700
        },
        {
            "buffer" : 0,
            "byteLength" : 2240,
            "byteOffset" : 1206060
        },
        {
            "buffer" : 0,
            "byteLength" : 840,
            "byteOffset" : 1208300
        },
        {
            "buffer" : 0,
            "byteLength" : 19680,
            "byteOffset" : 1209140
        },
        {
            "buffer" : 0,
            "byteLength" : 19680,
            "byteOffset" : 1228820
        },
        {
            "buffer" : 0,
            "byteLength" : 13120,
            "byteOffset" : 1248500
        },
        {
            "buffer" : 0,
            "byteLength" : 8868,
            "byteOffset" : 1261620
        },
        {
            "buffer" : 0,
            "byteLength" : 413311,
            "byteOffset" : 1270488
        },
        {
            "buffer" : 0,
            "byteLength" : 756,
            "byteOffset" : 1683800
        },
        {
            "buffer" : 0,
            "byteLength" : 756,
            "byteOffset" : 1684556
        },
        {
            "buffer" : 0,
            "byteLength" : 504,
            "byteOffset" : 1685312
        },
        {
            "buffer" : 0,
            "byteLength" : 480,
            "byteOffset" : 1685816
        },
        {
            "buffer" : 0,
            "byteLength" : 756,
            "byteOffset" : 1686296
        },
        {
            "buffer" : 0,
            "byteLength" : 756,
            "byteOffset" : 1687052
        },
        {
            "buffer" : 0,
            "byteLength" : 504,
            "byteOffset" : 1687808
        },
        {
            "buffer" : 0,
            "byteLength" : 2304,
            "byteOffset" : 1688312
        },
        {
            "buffer" : 0,
            "byteLength" : 6912,
            "byteOffset" : 1690616
        },
        {
            "buffer" : 0,
            "byteLength" : 9216,
            "byteOffset" : 1697528
        },
        {
            "buffer" : 0,
            "byteLength" : 6912,
            "byteOffset" : 1706744
        },
        {
            "buffer" : 0,
            "byteLength" : 6912,
            "byteOffset" : 1713656
        },
        {
            "buffer" : 0,
            "byteLength" : 9216,
            "byteOffset" : 1720568
        },
        {
            "buffer" : 0,
            "byteLength" : 6912,
            "byteOffset" : 1729784
        },
        {
            "buffer" : 0,
            "byteLength" : 6912,
            "byteOffset" : 1736696
        },
        {
            "buffer" : 0,
            "byteLength" : 9216,
            "byteOffset" : 1743608
        },
        {
            "buffer" : 0,
            "byteLength" : 6912,
            "byteOffset" : 1752824
        }
    ],
    "samplers" : [
        {
            "magFilter" : 9729,
            "minFilter" : 9987
        }
    ],
    "buffers" : [
        {
            "byteLength" : 1759736,
            "uri" : "data:application/octet-stream;base64,"
        }
    ]
}
