{
    "asset" : {
        "generator" : "Khronos glTF Blender I/O v3.2.43",
        "version" : "2.0"
    },
    "scene" : 0,
    "scenes" : [
        {
            "name" : "Scene",
            "nodes" : [
                0
            ]
        }
    ],
    "nodes" : [
        {
            "mesh" : 0,
            "name" : "Cube.009"
        }
    ],
    "animations" : [
        {
            "channels" : [
                {
                    "sampler" : 0,
                    "target" : {
                        "node" : 0,
                        "path" : "translation"
                    }
                },
                {
                    "sampler" : 1,
                    "target" : {
                        "node" : 0,
                        "path" : "rotation"
                    }
                },
                {
                    "sampler" : 2,
                    "target" : {
                        "node" : 0,
                        "path" : "scale"
                    }
                }
            ],
            "name" : "Cube.009",
            "samplers" : [
                {
                    "input" : 16,
                    "interpolation" : "LINEAR",
                    "output" : 17
                },
                {
                    "input" : 16,
                    "interpolation" : "LINEAR",
                    "output" : 18
                },
                {
                    "input" : 16,
                    "interpolation" : "LINEAR",
                    "output" : 19
                }
            ]
        }
    ],
    "materials" : [
        {
            "doubleSided" : true,
            "name" : "wood",
            "pbrMetallicRoughness" : {
                "baseColorTexture" : {
                    "index" : 0
                },
                "metallicFactor" : 0,
                "roughnessFactor" : 0.6454545259475708
            }
        },
        {
            "doubleSided" : true,
            "name" : "metal",
            "pbrMetallicRoughness" : {
                "baseColorFactor" : [
                    0.04200763255357742,
                    0.037770457565784454,
                    0.028896354138851166,
                    1
                ],
                "roughnessFactor" : 0.0989583432674408
            }
        },
        {
            "doubleSided" : true,
            "name" : "stone",
            "pbrMetallicRoughness" : {
                "metallicFactor" : 0.7495771646499634,
                "roughnessFactor" : 0.8154333829879761
            }
        },
        {
            "doubleSided" : true,
            "emissiveFactor" : [
                1,
                1,
                1
            ],
            "name" : "fire",
            "pbrMetallicRoughness" : {
                "baseColorFactor" : [
                    1,
                    0.6184913516044617,
                    0.3622833788394928,
                    1
                ],
                "metallicFactor" : 0,
                "roughnessFactor" : 0.5
            }
        }
    ],
    "meshes" : [
        {
            "name" : "Cube.078",
            "primitives" : [
                {
                    "attributes" : {
                        "POSITION" : 0,
                        "NORMAL" : 1,
                        "TEXCOORD_0" : 2
                    },
                    "indices" : 3,
                    "material" : 0
                },
                {
                    "attributes" : {
                        "POSITION" : 4,
                        "NORMAL" : 5,
                        "TEXCOORD_0" : 6
                    },
                    "indices" : 7,
                    "material" : 1
                },
                {
                    "attributes" : {
                        "POSITION" : 8,
                        "NORMAL" : 9,
                        "TEXCOORD_0" : 10
                    },
                    "indices" : 11,
                    "material" : 2
                },
                {
                    "attributes" : {
                        "POSITION" : 12,
                        "NORMAL" : 13,
                        "TEXCOORD_0" : 14
                    },
                    "indices" : 15,
                    "material" : 3
                }
            ]
        }
    ],
    "textures" : [
        {
            "sampler" : 0,
            "source" : 0
        }
    ],
    "images" : [
        {
            "bufferView" : 4,
            "mimeType" : "image/png",
            "name" : "Untitled"
        }
    ],
    "accessors" : [
        {
            "bufferView" : 0,
            "componentType" : 5126,
            "count" : 6692,
            "max" : [
                4.877045631408691,
                7.173742771148682,
                7.288877487182617
            ],
            "min" : [
                -4.879066467285156,
                -0.18992304801940918,
                -2.1623849868774414
            ],
            "type" : "VEC3"
        },
        {
            "bufferView" : 1,
            "componentType" : 5126,
            "count" : 6692,
            "type" : "VEC3"
        },
        {
            "bufferView" : 2,
            "componentType" : 5126,
            "count" : 6692,
            "type" : "VEC2"
        },
        {
            "bufferView" : 3,
            "componentType" : 5123,
            "count" : 12804,
            "type" : "SCALAR"
        },
        {
            "bufferView" : 5,
            "componentType" : 5126,
            "count" : 1042,
            "max" : [
                2.9809324741363525,
                3.527594566345215,
                5.93954610824585
            ],
            "min" : [
                -3.8978028297424316,
                -0.004037261009216309,
                -1.1435542106628418
            ],
            "type" : "VEC3"
        },
        {
            "bufferView" : 6,
            "componentType" : 5126,
            "count" : 1042,
            "type" : "VEC3"
        },
        {
            "bufferView" : 7,
            "componentType" : 5126,
            "count" : 1042,
            "type" : "VEC2"
        },
        {
            "bufferView" : 8,
            "componentType" : 5123,
            "count" : 1608,
            "type" : "SCALAR"
        },
        {
            "bufferView" : 9,
            "componentType" : 5126,
            "count" : 280,
            "max" : [
                1.19710111618042,
                0.3144912123680115,
                7.593184947967529
            ],
            "min" : [
                -1.1263338327407837,
                -0.25272655487060547,
                5.208747863769531
            ],
            "type" : "VEC3"
        },
        {
            "bufferView" : 10,
            "componentType" : 5126,
            "count" : 280,
            "type" : "VEC3"
        },
        {
            "bufferView" : 11,
            "componentType" : 5126,
            "count" : 280,
            "type" : "VEC2"
        },
        {
            "bufferView" : 12,
            "componentType" : 5123,
            "count" : 420,
            "type" : "SCALAR"
        },
        {
            "bufferView" : 13,
            "componentType" : 5126,
            "count" : 63,
            "max" : [
                0.5007200241088867,
                1.929092288017273,
                6.778057098388672
            ],
            "min" : [
                -0.4309914708137512,
                -0.30877208709716797,
                5.769379615783691
            ],
            "type" : "VEC3"
        },
        {
            "bufferView" : 14,
            "componentType" : 5126,
            "count" : 63,
            "type" : "VEC3"
        },
        {
            "bufferView" : 15,
            "componentType" : 5126,
            "count" : 63,
            "type" : "VEC2"
        },
        {
            "bufferView" : 16,
            "componentType" : 5123,
            "count" : 240,
            "type" : "SCALAR"
        },
        {
            "bufferView" : 17,
            "componentType" : 5126,
            "count" : 576,
            "max" : [
                23.958333333333332
            ],
            "min" : [
                0
            ],
            "type" : "SCALAR"
        },
        {
            "bufferView" : 18,
            "componentType" : 5126,
            "count" : 576,
            "type" : "VEC3"
        },
        {
            "bufferView" : 19,
            "componentType" : 5126,
            "count" : 576,
            "type" : "VEC4"
        },
        {
            "bufferView" : 20,
            "componentType" : 5126,
            "count" : 576,
            "type" : "VEC3"
        }
    ],
    "bufferViews" : [
        {
            "buffer" : 0,
            "byteLength" : 80304,
            "byteOffset" : 0
        },
        {
            "buffer" : 0,
            "byteLength" : 80304,
            "byteOffset" : 80304
        },
        {
            "buffer" : 0,
            "byteLength" : 53536,
            "byteOffset" : 160608
        },
        {
            "buffer" : 0,
            "byteLength" : 25608,
            "byteOffset" : 214144
        },
        {
            "buffer" : 0,
            "byteLength" : 886917,
            "byteOffset" : 239752
        },
        {
            "buffer" : 0,
            "byteLength" : 12504,
            "byteOffset" : 1126672
        },
        {
            "buffer" : 0,
            "byteLength" : 12504,
            "byteOffset" : 1139176
        },
        {
            "buffer" : 0,
            "byteLength" : 8336,
            "byteOffset" : 1151680
        },
        {
            "buffer" : 0,
            "byteLength" : 3216,
            "byteOffset" : 1160016
        },
        {
            "buffer" : 0,
            "byteLength" : 3360,
            "byteOffset" : 1163232
        },
        {
            "buffer" : 0,
            "byteLength" : 3360,
            "byteOffset" : 1166592
        },
        {
            "buffer" : 0,
            "byteLength" : 2240,
            "byteOffset" : 1169952
        },
        {
            "buffer" : 0,
            "byteLength" : 840,
            "byteOffset" : 1172192
        },
        {
            "buffer" : 0,
            "byteLength" : 756,
            "byteOffset" : 1173032
        },
        {
            "buffer" : 0,
            "byteLength" : 756,
            "byteOffset" : 1173788
        },
        {
            "buffer" : 0,
            "byteLength" : 504,
            "byteOffset" : 1174544
        },
        {
            "buffer" : 0,
            "byteLength" : 480,
            "byteOffset" : 1175048
        },
        {
            "buffer" : 0,
            "byteLength" : 2304,
            "byteOffset" : 1175528
        },
        {
            "buffer" : 0,
            "byteLength" : 6912,
            "byteOffset" : 1177832
        },
        {
            "buffer" : 0,
            "byteLength" : 9216,
            "byteOffset" : 1184744
        },
        {
            "buffer" : 0,
            "byteLength" : 6912,
            "byteOffset" : 1193960
        }
    ],
    "samplers" : [
        {
            "magFilter" : 9729,
            "minFilter" : 9987
        }
    ],
    "buffers" : [
        {
            "byteLength" : 1200872,
            "uri" : "data:application/octet-stream;base64,"
        }
    ]
}
